<?xml version="1.0" encoding="UTF-8" standalone="no"?>
<!-- Created with Inkscape (http://www.inkscape.org/) -->

<svg
   xmlns:dc="http://purl.org/dc/elements/1.1/"
   xmlns:cc="http://creativecommons.org/ns#"
   xmlns:rdf="http://www.w3.org/1999/02/22-rdf-syntax-ns#"
   xmlns:svg="http://www.w3.org/2000/svg"
   xmlns="http://www.w3.org/2000/svg"
   xmlns:sodipodi="http://sodipodi.sourceforge.net/DTD/sodipodi-0.dtd"
   xmlns:inkscape="http://www.inkscape.org/namespaces/inkscape"
   width="3200"
   height="800"
   id="svg2"
   version="1.1"
   inkscape:version="0.48.4 r9939"
   sodipodi:docname="Cerealguy.svg">
  <defs
     id="defs4" />
  <sodipodi:namedview
     id="base"
     pagecolor="#ffffff"
     bordercolor="#666666"
     borderopacity="1.0"
     inkscape:pageopacity="0.0"
     inkscape:pageshadow="2"
     inkscape:zoom="0.50425552"
     inkscape:cx="1619.7084"
     inkscape:cy="320.82506"
     inkscape:document-units="px"
     inkscape:current-layer="layer1"
     showgrid="false"
     inkscape:window-width="1280"
     inkscape:window-height="974"
     inkscape:window-x="0"
     inkscape:window-y="0"
     inkscape:window-maximized="1" />
  <metadata
     id="metadata7">
    <rdf:RDF>
      <cc:Work
         rdf:about="">
        <dc:format>image/svg+xml</dc:format>
        <dc:type
           rdf:resource="http://purl.org/dc/dcmitype/StillImage" />
        <dc:title></dc:title>
      </cc:Work>
    </rdf:RDF>
  </metadata>
  <g
     inkscape:label="Layer 1"
     inkscape:groupmode="layer"
     id="layer1"
     transform="translate(0,-252.36218)">
    <path
       style="fill:none;stroke:#000000;stroke-width:5;stroke-miterlimit:4;stroke-opacity:1;stroke-dasharray:none"
       d="m 1308.474,988.23264 c -2.9431,-12.45543 -5.9561,-25.59683 -6.6954,-29.20313 -1.3089,-6.3851 -3.5076,-6.6159 -83.8783,-8.8071 -49.5767,-1.3517 -84.158,-3.5635 -86.6006,-5.5391 -6.7668,-5.473 -4.7011,-14.938 3.9606,-18.1473 5.0203,-1.8601 36.5364,-1.9532 84.1364,-0.2483 l 76.1094,2.7259 14.4234,-8.8221 c 20.9832,-12.83436 43.6201,-20.74561 80.858,-28.25868 28.3575,-5.72137 39.5978,-6.3913 81.0044,-4.82786 26.4428,0.99843 52.0443,2.71292 56.8922,3.81003 l 8.8143,1.99471 0,-61.61326 0,-61.61328 -7.2374,1.77024 c -18.7317,4.58169 -68.4128,11.64881 -101.7393,14.47237 -74.1769,6.28459 -110.2347,2.71514 -145.0965,-14.36338 -27.0416,-13.24744 -88.2506,-54.0627 -108.5712,-72.39716 -20.3777,-18.38592 -22.9157,-25.97181 -11.1936,-33.45692 10.3623,-6.61679 17.6629,-3.50982 61.0123,25.96555 46.3351,31.50557 57.4742,38.41391 82.2692,51.02282 l 20.6161,10.48385 51.2832,-0.36902 c 50.554,-0.36374 90.711,-5.01215 136.8629,-15.8427 17.3376,-4.06863 21.661,-6.30273 22.4364,-11.59392 0.8441,-5.75982 3.1827,-6.57465 19.2971,-6.72352 10.0851,-0.0931 19.0236,-0.83891 19.8633,-1.65723 0.8397,-0.8183 -5.6436,-6.25626 -14.4073,-12.0843 -15.3581,-10.21357 -17.6695,-10.74152 -63.964,-14.6095 -76.6855,-6.40719 -121.4046,-16.83113 -151.1865,-35.24128 -34.3215,-21.21638 -53.042,-63.54243 -56.0734,-126.77884 -2.4632,-51.38238 1.7379,-74.39515 20.2216,-110.77073 12.5276,-24.6539 19.8577,-34.2956 44.1896,-58.12507 22.7669,-22.29675 34.4479,-31.06639 53.2096,-39.9475 31.134,-14.73764 48.4944,-17.63049 105.4077,-17.56459 89.6458,0.1038 127.5112,16.49613 150.3354,65.08184 6.1906,13.17798 8.6664,25.51242 11.0006,54.8058 1.8694,23.46053 5.0415,41.86856 8.3616,48.52355 8.4643,16.96658 7.3675,63.44222 -1.9054,80.7391 -4.8899,9.12105 -7.1686,18.83395 -7.1686,30.55557 0,9.45122 -2.137,22.16855 -4.749,28.26075 -6.3168,14.73341 -44.3336,52.87541 -63.2432,63.45138 l -15.1066,8.44897 13.4499,10.07404 c 17.0852,12.79698 23.8012,14.34252 43.9892,10.12314 25.1935,-5.26551 116.6557,-4.37341 139.5721,1.36133 56.0913,14.03669 89.755,44.78253 93.537,85.4296 1.4259,15.32434 0.35,21.26274 -6.49,35.82306 -4.5096,9.5995 -14.5972,24.17523 -22.417,32.39055 l -14.2178,14.93691 2.9901,35.92158 c 5.1464,61.827 2.6106,57.0157 32.1952,61.0853 l 15.211,2.0924 -0.223,0.70587 6.7883,-2.09868 1.8393,6.08084 -5.1721,3.9775 -7.2117,-0.1362 c -3.9664,-0.075 -15.8657,-1.8835 -26.4429,-4.01893 -19.0629,-3.8486 -19.2482,-3.9909 -21.1802,-16.2627 l -1.9491,-12.3801 -0.4548,12.0682 -0.4549,12.0683 -15.2246,-2.2207 c -8.3736,-1.2213 -16.3065,-2.8695 -17.6286,-3.6626 -1.3222,-0.7931 -2.4039,-19.5961 -2.4039,-41.7845 l 0,-40.3424 9.4564,-4.76564 c 13.7287,-6.91871 18.7777,-5.96751 20.2998,3.82431 1.0436,6.71371 1.4401,5.96111 1.8155,-3.44557 0.3826,-9.58697 3.5108,-15.30625 15.3765,-28.11254 28.0552,-30.27895 33.6319,-56.09676 18.5064,-85.67702 -12.4982,-24.44226 -39.8523,-42.88981 -77.4788,-52.25147 -25.2571,-6.28415 -110.618,-7.32753 -140.92,-1.72252 l -23.1337,4.27908 -13.726,-8.69121 c -17.931,-11.35382 -28.1495,-20.54468 -28.1495,-25.31881 0,-2.11429 6.8511,-7.75179 15.2247,-12.52783 19.8557,-11.3251 47.4948,-36.72822 58.9847,-54.21287 7.6096,-11.57975 9.1257,-17.22699 9.1257,-33.99109 0,-15.1888 1.7037,-22.79063 6.9682,-31.09199 10.277,-16.20517 12.0574,-53.85867 3.4365,-72.67666 -4.5604,-9.95463 -6.8693,-23.66646 -8.1271,-48.26475 -2.1647,-42.33303 -9.8119,-64.40707 -28.9666,-83.61421 -26.9695,-27.04329 -53.3231,-33.97231 -129.2142,-33.97368 -46.6823,-8.5e-4 -53.9489,0.7496 -74.4119,7.6848 -51.4275,17.42949 -104.2173,69.22365 -125.878,123.50387 -9.6089,24.07909 -12.116,91.07794 -4.6898,125.32628 16.5996,76.55415 60.1961,102.76494 189.1952,113.74667 54.0198,4.59871 62.6463,6.96247 84.5035,23.15511 7.1012,5.26079 10.2594,9.98192 9.6156,14.37419 -0.8386,5.72128 -3.4677,6.65692 -20.9911,7.47041 -17.4067,0.80805 -20.0325,1.72929 -20.0325,7.02813 0,3.35398 -0.523,6.09817 -1.1623,6.09817 -0.6392,0 -12.5385,2.72983 -26.4429,6.06625 -43.294,10.38865 -93.8816,16.31221 -143.8728,16.84676 -47.587,0.50886 -48.2907,0.41559 -68.9117,-9.1328 -11.4586,-5.30581 -45.8103,-26.0388 -76.3372,-46.07333 -30.5268,-20.03453 -56.7644,-36.42642 -58.3056,-36.42642 -1.5413,0 -3.8552,1.66024 -5.1421,3.68943 -3.4231,5.39767 23.9603,28.68126 66.3977,56.4566 42.826,28.02977 68.3144,40.75966 92.4725,46.18434 24.2649,5.44871 109.4967,1.95742 158.8031,-6.50489 21.1542,-3.63064 43.8711,-7.38014 50.4818,-8.33219 l 12.0195,-1.73101 0,68.94647 c 0,41.89393 -1.2388,69.69258 -3.1571,70.84801 -1.7364,1.04581 -15.078,0.27363 -29.648,-1.71568 -73.0574,-9.97542 -158.7954,3.06558 -200.1324,30.4407 l -12.26,8.1192 -82.5338,-2.1872 c -57.2758,-1.5178 -82.5338,-1.1765 -82.5338,1.115 0,4.234 -5.2804,3.875 89.5029,6.0863 l 81.4899,1.9013 5.5657,24.9889 c 3.0612,13.74393 7.1011,28.85433 8.9776,33.57879 2.9754,7.4914 2.6462,8.59 -2.574,8.59 -4.8018,0 -7.0443,-4.4795 -11.337,-22.64616 z m 516.3757,-48.41603 c -1.1238,-11.5965 -2.0535,-29.0352 -2.0661,-38.7528 -0.019,-16.12554 -0.5825,-17.5257 -6.4331,-16.03467 -5.9333,1.51211 -6.4104,4.26067 -6.4104,36.93067 0,35.6235 0.7825,38.0491 12.4829,38.6946 3.5959,0.1983 4.0704,-3.8766 2.4267,-20.8378 z m 9.8225,-28.1126 c -0.7344,-4.72445 -1.3353,-0.859 -1.3353,8.59 0,9.4489 0.6009,13.3144 1.3353,8.5899 0.7344,-4.7245 0.7344,-12.4554 0,-17.1799 z m -507.3829,89.29739 c -2.8827,-5.43246 -6.0047,-18.08306 -6.9379,-28.11249 -1.6693,-17.9412 -1.5636,-18.2352 6.5626,-18.2352 4.5426,0 18.0845,2.4285 30.0932,5.3966 33.2069,8.2074 167.9254,7.9329 206.1328,-0.4201 41.9326,-9.1674 43.3259,-8.9743 42.9838,5.9562 -0.397,17.32653 -13.2438,45.29239 -20.8061,45.29239 -5.3189,0 -4.9759,-1.8616 3.5974,-19.52256 10.9983,-22.65653 12.1863,-31.64103 3.8729,-29.28983 -39.7592,11.2448 -92.6992,15.72423 -159.2492,13.4746 -30.0837,-1.017 -64.7935,-4.0242 -77.1328,-6.6827 -12.3393,-2.6586 -23.5175,-4.8337 -24.8403,-4.8337 -4.3316,0 -2.5255,15.24213 3.6974,31.20263 4.8751,12.50366 5.214,15.65156 1.6849,15.65156 -2.4297,0 -6.7761,-4.4449 -9.6587,-9.8774 z m 272.7508,4.7278 c 1.418,-3.1807 6.3161,-15.97286 10.8845,-28.42709 8.2349,-22.4492 8.4061,-22.644 19.9121,-22.6462 18.8603,0 163.9872,15.0892 215.1618,22.3761 l 47.2767,6.73193 4.7455,2.7695 c 0,0 -0.9527,7.3586 -9.8466,5.52827 -9.3221,-1.91845 -13.6894,-1.93926 -18.3175,-2.62747 -37.4243,-5.56506 -93.5579,-12.86063 -160.8802,-19.13483 -37.02,-3.4501 -70.7414,-6.6248 -74.9365,-7.0548 -6.8021,-0.6972 -8.5361,1.75 -16.026,22.61713 -5.9749,16.64636 -10.1522,23.72366 -14.4754,24.52466 -4.8534,0.8993 -5.5577,-0.038 -3.4984,-4.6572 z m 142.5909,-47.04289 c -18.5101,-2.5527 -35.2773,-5.9363 -37.2606,-7.5191 -2.143,-1.7103 -3.0419,-8.8736 -2.2156,-17.6564 2.7585,-29.31945 0.1211,-27.06142 44.1587,-37.80903 22.0121,-5.37215 42.2233,-9.76758 44.9139,-9.76758 4.1248,0 4.8919,6.12235 4.8919,39.04521 l 0,39.0452 -10.4169,-0.3485 c -5.7293,-0.1918 -25.5614,-2.4371 -44.0714,-4.9898 z m 48.0779,-33.7069 c 0,-16.3209 -1.0818,-29.63813 -2.4039,-29.59386 -1.3221,0.0444 -18.2506,3.99338 -37.6188,8.77579 l -35.2148,8.69527 -2.5865,15.0352 c -1.4226,8.2694 -2.0063,15.6007 -1.2971,16.2918 1.5702,1.5302 58.0141,9.6664 70.3068,10.1345 l 8.8143,0.3356 z m -395.3948,33.7541 c -1.2233,-1.1921 -8.1046,-1.8294 -15.2919,-1.4161 -7.6093,0.4376 -16.2282,-1.2666 -20.6338,-4.0797 -4.1612,-2.6572 -11.6679,-4.8312 -16.6816,-4.8312 -5.0137,0 -11.7118,-1.8499 -14.8847,-4.111 -24.1278,-17.1936 38.6087,-39.36076 118.9086,-42.0148 50.8049,-1.67919 74.7417,0.55591 74.7417,6.979 0,3.1475 5.3558,4.0788 21.3557,3.7132 14.6052,-0.3337 21.7816,0.7462 22.7034,3.4166 0.7465,2.1623 6.5916,3.925 13.1002,3.9505 14.4121,0.057 27.3557,6.0682 28.7999,13.3763 2.3704,11.9952 -56.275,26.1079 -63.1931,15.2071 -1.9872,-3.1312 -3.0957,-2.491 -4.4545,2.5726 -2.5818,9.6216 -19.4712,7.7595 -20.9384,-2.3086 -0.9068,-6.2225 0.3791,-7.0394 11.2182,-7.1263 9.393,-0.075 13.6432,-1.971 18.2611,-8.1449 l 6.0187,-8.0467 -10.0252,2.1458 c -14.9344,3.1967 -30.2056,-0.7946 -27.69,-7.237 1.618,-4.1438 1.2176,-4.3949 -2.0175,-1.2652 -2.2199,2.1475 -8.7506,3.9045 -14.5127,3.9045 -7.485,0 -10.0018,1.2057 -8.814,4.2223 0.9669,2.4554 4.6949,3.6575 8.9087,2.8725 13.7373,-2.5592 19.8719,14.7327 7.8451,22.1134 -4.0923,2.5114 -6.8427,2.0776 -11.2182,-1.7695 -5.0654,-4.4535 -6.5817,-4.5355 -12.0185,-0.6496 -8.446,6.0369 -16.6466,5.5879 -23.7126,-1.2983 -5.6257,-5.4825 -6.2122,-5.4953 -12.8208,-0.2802 -3.809,3.0058 -6.9254,6.9968 -6.9254,8.8689 0,1.8721 -3.7741,3.4039 -8.3868,3.4039 -6.8088,0 -8.0714,-1.1755 -6.7105,-6.2473 1.0895,-4.0602 0.098,-6.2472 -2.8313,-6.2472 -2.4793,0 -4.5078,2.8113 -4.5078,6.2472 0,4.9978 -2.1368,6.2473 -10.684,6.2473 -5.8762,0 -11.6848,-0.9754 -12.908,-2.1675 z m 9.8555,-12.5582 c -2.9381,-2.8633 -6.4558,-4.1205 -7.8172,-2.7938 -1.3613,1.3267 0.302,4.3912 3.6962,6.8099 8.0034,5.7033 11.0488,2.7354 4.121,-4.0161 z m -29.5336,-0.8924 c -1.0895,-1.718 -4.1444,-3.1236 -6.7887,-3.1236 -2.6443,0 -3.9164,1.4056 -2.8269,3.1236 1.0895,1.718 4.1444,3.1236 6.7887,3.1236 2.6443,0 3.9164,-1.4056 2.8269,-3.1236 z m 107.2575,-4.5486 c 5.4555,-6.4062 1.3741,-11.0695 -9.6882,-11.0695 -7.153,0 -9.4264,1.4439 -9.4264,5.987 0,9.3813 12.6005,12.7318 19.1146,5.0825 z m 99.6972,-0.5858 17.409,-5.1345 -10.7459,-4.3762 c -9.6221,-3.9185 -11.9481,-3.7682 -22.2401,1.4369 -23.9994,12.1375 -14.6437,16.9867 15.577,8.0738 z m -167.7848,-4.0588 c 0.3193,-4.1306 -1.0248,-5.5109 -4.2075,-4.3206 -3.5944,1.3442 -3.8251,2.7488 -0.9972,6.0695 4.6667,5.4799 4.6454,5.487 5.2047,-1.7489 z m 25.8694,0.957 c -2.9626,-2.8871 -7.5355,-4.2564 -10.5056,-3.1457 -7.5509,2.8238 -2.7859,8.2583 7.241,8.2583 7.8811,0 8.1226,-0.3783 3.2646,-5.1126 z m -84.2705,-4.2583 c 6.9155,-3.4359 17.6774,-6.2807 23.9154,-6.3217 6.238,-0.041 17.1111,-1.6484 24.1625,-3.5719 13.9233,-3.7982 27.7986,-5.3142 76.9248,-8.4048 l 32.0519,-2.0164 -27.2441,-2.5044 c -24.4738,-2.2496 -70.8057,0.6544 -96.0254,6.0188 -21.248,4.5197 -57.6716,17.6374 -56.0543,20.1877 2.7552,4.3444 8.4518,3.478 22.2692,-3.3873 z m 97.7585,-1.5618 c 0,-2.577 -2.3401,-4.6854 -5.2003,-4.6854 -4.259,0 -4.478,0.848 -1.2101,4.6854 2.1946,2.577 4.5347,4.6854 5.2002,4.6854 0.6656,0 1.2102,-2.1084 1.2102,-4.6854 z m 201.9274,18.213 c -31.055,-2.2747 -35.2572,-3.7815 -35.2572,-12.6422 0,-4.5114 -2.3385,-10.7206 -5.1965,-13.7984 -2.8581,-3.0778 -4.3457,-7.7568 -3.3058,-10.3977 1.5429,-3.9184 8.3954,-4.8018 37.2485,-4.8018 l 35.3577,0 -0.3195,13.2754 c -0.4379,18.1951 -3.8743,28.8069 -9.4367,29.1409 -2.567,0.1543 -11.1578,-0.1952 -19.0906,-0.7762 z m 18.6233,-20.5557 0.9948,-11.7135 -25.3568,0 -25.3568,0 3.4657,10.7909 c 3.1864,9.9214 4.6329,10.887 17.9516,11.9836 26.3134,2.1666 27.2079,1.817 28.3015,-11.061 z m -121.269,-32.2204 c -3.6339,-9.31478 -4.1931,-132.32638 -0.6263,-137.7918 3.916,-6.0005 50.9895,-20.1109 59.8564,-17.94208 11.5357,2.82159 31.819,25.74862 44.471,50.26747 19.1406,37.09334 33.094,88.05097 25.3823,92.69576 -1.3249,0.79802 -15.9551,2.48368 -32.5115,3.7459 l -30.1025,2.29492 1.594,-8.12624 c 1.4966,-7.62993 0.6226,-7.27512 -14.3105,5.8093 -14.9848,13.12968 -28.032,18.05812 -28.032,10.58881 0,-1.84069 -2.2665,-1.13787 -5.0367,1.5618 -7.6644,7.46935 -17.1124,6.0516 -20.6842,-3.10384 z m 77.1643,-60.74467 c 17.2403,0.079 20.6835,14.1125 7.9494,32.39958 l -7.9164,11.36855 10.3203,-0.0344 c 5.6761,-0.0187 15.8793,-0.9294 22.6737,-2.02329 12.273,-1.976 12.3406,-2.06655 10.397,-13.91214 -5.9645,-36.35055 -36.6775,-95.5718 -57.0946,-110.09074 l -8.7027,-6.18857 -23.3493,7.6294 -23.3493,7.6294 -0.8715,62.31157 c -0.4792,34.27137 -0.063,64.36363 0.9242,66.8717 1.2524,3.18066 10.7272,-4.59965 31.3208,-25.71922 22.3679,-22.93921 31.5065,-30.27027 37.6984,-30.24184 z m -11.3784,28.15006 c 3.1907,-3.43598 5.0802,-6.24724 4.1987,-6.24724 -0.8814,0 -4.2132,2.81126 -7.4039,6.24724 -3.1907,3.43597 -5.0802,6.24723 -4.1987,6.24723 0.8814,0 4.2132,-2.81126 7.4039,-6.24723 z m 86.9518,15.23246 c -0.7157,-2.36489 -4.3123,-16.95045 -7.9925,-32.41235 -3.8018,-15.97283 -12.9523,-40.47122 -21.1902,-56.73214 -7.9744,-15.74077 -14.499,-30.14845 -14.499,-32.01705 0,-5.38031 19.1341,-4.01701 64.4333,4.5908 23.1214,4.39356 42.6015,7.43989 43.2892,6.76966 0.6878,-0.67023 -24.8779,-6.4111 -56.8126,-12.7575 -61.0119,-12.12488 -70.141,-15.02784 -70.141,-22.30393 0,-9.20123 13.7398,-12.18935 56.0909,-12.19853 82.5263,-0.0187 128.4078,14.62877 148.0271,47.25449 10.3703,17.2452 9.4201,40.08742 -2.4083,57.89181 -11.3321,17.05741 -17.226,14.26477 -18.236,-8.64051 -1.123,-25.46918 -3.1887,-32.7676 -9.2746,-32.7676 -2.8433,0 -10.3881,-3.03622 -16.7662,-6.74714 -6.3781,-3.71088 -9.7936,-4.83539 -7.59,-2.49889 2.7808,2.94863 4.0065,16.80671 4.0065,45.29998 l 0,41.05172 -28.0455,8.23185 c -36.5042,10.71465 -61.1194,13.84005 -62.8911,7.98533 z m 59.9061,-16.31595 c 12.065,-3.69905 21.819,-7.77977 21.6756,-9.06827 -0.1434,-1.28849 -0.2607,-17.70496 -0.2607,-36.48101 l 0,-34.13831 -17.9186,-3.62521 c -9.8552,-1.99386 -35.6782,-6.75181 -57.3845,-10.57321 l -39.466,-6.94805 9.3231,16.09915 c 10.2644,17.72461 23.0855,52.30919 26.6035,71.76213 4.4419,24.56198 4.1717,24.27545 20.6236,21.87115 8.1773,-1.19504 24.7391,-5.19929 36.804,-8.89837 z m 77.4028,-53.84273 c 7.7052,-21.84241 -6.4196,-46.95432 -34.2826,-60.94983 -24.9633,-12.53901 -94.4324,-21.27785 -135.2682,-17.01602 -11.8577,1.23754 -21.0551,2.74169 -20.4385,3.34258 0.6166,0.60086 26.3315,6.12797 57.1443,12.28246 64.3504,12.85321 89.2762,19.33337 96.0883,24.98087 2.6443,2.19221 8.8252,4.91672 13.7354,6.05444 10.6216,2.46106 15.1113,12.05553 15.1113,32.2924 0,16.20295 1.9311,15.96202 7.91,-0.9869 z m -60.0612,-37.54583 c -1.065,-1.03795 -3.8295,-1.1489 -6.1433,-0.24645 -2.5568,0.99712 -1.7974,1.73729 1.9365,1.88716 3.3788,0.13557 5.2719,-0.60264 4.2068,-1.64058 z m 18.0013,81.40754 c -3.1808,-8.07789 0.6921,-57.5344 4.8205,-61.55771 2.8291,-2.75709 5.3433,-2.85955 9.3852,-0.38249 8.3233,5.10093 9.8456,57.09245 1.8387,62.7982 -7.4735,5.32564 -13.7416,4.99044 -16.0444,-0.858 z m 12.5531,-31.65456 -3.1743,-21.31505 -0.4352,24.83274 c -0.3227,18.40984 0.4984,23.9229 3.1743,21.31505 2.6018,-2.5355 2.7233,-9.46927 0.4352,-24.83274 z M 1476.5997,673.58832 c -68.3922,-4.83598 -119.9332,-23.40825 -141.1252,-50.85308 -26.8751,-34.80486 -38.6254,-100.75298 -27.2623,-153.00944 5.8611,-26.95392 19.6025,-54.91419 39.7093,-80.79872 20.7501,-26.71258 40.0045,-42.94821 68.5813,-57.8289 l 23.2371,-12.10019 58.891,-1.03432 c 62.6445,-1.10025 92.7085,2.08382 112.4774,11.91249 15.0838,7.49932 34.3857,28.33516 42.2024,45.55623 4.9028,10.80143 11.8624,55.5036 12.3128,79.08654 0.083,4.35336 -4.8134,4.19978 -38.3796,-1.20381 -8.6384,-1.39063 -6.9696,-0.15377 7.2572,5.37859 10.1615,3.95149 23.6703,11.22405 30.0194,16.16125 l 11.544,8.97672 -1.3299,27.10782 c -1.8397,37.50167 -10.5169,48.32235 -47.4907,59.22251 -10.0382,2.95934 -9.2392,3.14086 7.5964,1.72576 28.4797,-2.39384 33.7414,5.50838 21.3626,32.08366 -12.4731,26.77776 -51.2914,59.29 -78.6396,65.86443 -18.6186,4.47586 -65.8875,6.23268 -100.9636,3.75246 z m 81.5871,-9.57051 c 34.2183,-4.81945 67.523,-27.19197 85.2052,-57.23669 14.5531,-24.72788 13.433,-27.70581 -9.4709,-25.18049 -16.7682,1.84883 -19.4244,1.37289 -22.938,-4.11003 -2.2271,-3.47536 -6.3171,-5.60379 -9.3051,-4.84232 -6.6537,1.69572 -13.794,-6.28328 -12.3159,-13.76275 1.7885,-9.05079 16.3356,-7.36444 18.643,2.16117 1.2716,5.24946 2.6823,6.51862 4.3401,3.90452 1.3509,-2.13017 5.5216,-3.87303 9.2681,-3.87303 3.7465,0 12.9025,-2.87339 20.3466,-6.3853 16.904,-7.97476 24.2204,-21.93664 24.8202,-47.36397 0.393,-16.65975 -0.4935,-19.4917 -8.0964,-25.86502 -4.6958,-3.93632 -15.4936,-9.55558 -23.9953,-12.48726 -28.1699,-9.71401 -29.8809,-10.70213 -29.8809,-17.25606 0,-9.10251 7.5521,-10.81642 29.8523,-6.77482 10.7,1.93922 19.9952,2.999 20.6559,2.35505 0.6608,-0.64394 -0.2519,-13.85568 -2.028,-29.35943 -4.9167,-42.91715 -21.1682,-68.3647 -52.4634,-82.14998 -16.0997,-7.09179 -19.9929,-7.42257 -87.3649,-7.42257 -70.3236,0 -70.5625,0.0231 -88.3436,8.53333 -9.8061,4.69334 -24.5682,13.64991 -32.8046,19.9035 -14.0862,10.69513 -47.1246,47.02584 -47.1246,51.82061 0,1.20637 4.5015,0.66411 10.0033,-1.20502 12.1889,-4.14091 62.3847,-1.24211 68.8354,3.97523 7.6369,6.17678 5.3991,15.05446 -4.3179,17.12943 -4.8478,1.03522 -10.4362,2.35583 -12.4186,2.9347 -1.9824,0.57887 -4.5632,7.28389 -5.7351,14.90005 -2.8479,18.5073 -11.5622,27.2563 -27.1484,27.2563 -15.4305,0 -22.8352,-7.58266 -24.9283,-25.52739 -0.8672,-7.43479 -2.803,-16.32906 -4.3018,-19.76504 -1.4988,-3.43598 -3.2608,-8.20814 -3.9157,-10.6048 -1.6081,-5.8857 -17.0123,28.12609 -23.1655,51.14868 -6.7965,25.42923 -6.2174,63.48616 1.4397,94.61229 13.7863,56.04209 33.5313,75.18691 94.3007,91.43443 41.3592,11.05791 102.9118,14.93935 144.3524,9.10268 z m -17.7062,-70.40348 c -5.3082,-6.23317 -0.2077,-15.35625 8.5853,-15.35625 11.1281,0 8.7982,19.99032 -2.3608,20.25567 -1.1062,0.025 -3.9073,-2.17844 -6.2245,-4.89942 z m -110.3563,-24.52282 c -50.9815,-6.74784 -54.5936,-14.16378 -23.0279,-47.27875 l 20.2422,-21.23576 46.2839,-2.51476 c 58.6118,-3.18459 72.8917,-1.06537 81.4953,12.09438 3.5308,5.40049 8.9437,10.50178 12.0287,11.3362 3.9857,1.07805 5.609,4.70142 5.609,12.5198 0,16.35307 -15.8437,31.44391 -37.8188,36.02173 -21.3347,4.44443 -67.2295,4.03158 -104.8124,-0.94284 z m 88.1429,-7.64361 c -8.4726,-1.4588 -11.4706,-3.66441 -12.2494,-9.01203 -0.8326,-5.71598 1.6382,-8.26115 12.8207,-13.20677 16.3377,-7.22554 21.8922,-7.65505 29.4399,-2.27653 7.498,5.34312 4.0407,13.00929 -8.6086,19.08866 -5.6014,2.69209 -8.0209,4.92146 -5.3766,4.95416 9.0402,0.11179 24.8004,-11.81328 28.2101,-21.34533 2.959,-8.27214 2.6043,-9.76982 -2.7023,-11.4112 -3.3595,-1.03914 -7.9491,-5.58097 -10.199,-10.09294 -2.3278,-4.66835 -8.2344,-9.36757 -13.7062,-10.90463 -11.2237,-3.15277 -96.9741,0.13863 -104.4304,4.00842 -2.7881,1.44702 -11.9957,10.53213 -20.4614,20.18913 -18.6848,21.31408 -17.4768,23.36124 16.78,28.43544 24.8827,3.6857 111.4991,5.19207 90.4832,1.57362 z m 17.8173,-14.32664 c 8.2025,-6.04618 0.3512,-6.17421 -13.0095,-0.21216 -9.5872,4.27816 -9.5914,4.29159 -1.4139,4.54454 4.5109,0.13953 11.0015,-1.81004 14.4234,-4.33239 z m 56.4231,-4.40494 c -2.3578,-1.45647 -3.8001,-6.00324 -3.2052,-10.10392 0.8109,-5.58931 3.0877,-7.45579 9.0947,-7.45579 6.007,0 8.2838,1.86648 9.0947,7.45579 0.9249,6.37467 -3.6234,12.75205 -9.0947,12.75205 -0.8814,0 -3.5317,-1.19166 -5.8895,-2.64813 z m -110.3803,-74.57141 c -6.1911,-6.66701 -11.938,-20.80617 -11.938,-29.37128 0,-3.47825 -3.1252,-8.79032 -6.9449,-11.80459 -11.7869,-9.30148 -5.7605,-15.00469 18.534,-17.54019 26.1614,-2.73033 74.6866,0.20854 79.4075,4.80922 6.2109,6.05283 -2.5315,13.97598 -17.2662,15.64827 -13.3689,1.51728 -13.8709,1.98485 -17.6093,16.4009 -2.1164,8.16149 -6.4578,17.64948 -9.6475,21.0844 -7.4373,8.00884 -27.4014,8.45585 -34.5356,0.77327 z m 31.2498,-13.11453 c 2.6896,-5.06865 4.8901,-11.78402 4.8901,-14.92305 0,-9.80206 9.1591,-19.13669 20.0742,-20.45887 5.7063,-0.69124 -6.7266,-1.48175 -27.6288,-1.75669 -35.0563,-0.46112 -37.8225,-0.0759 -35.6641,4.96643 1.287,3.00648 3.5999,11.64186 5.1398,19.18972 3.5447,17.37422 7.708,22.19819 19.1579,22.19819 6.8805,0 10.35,-2.27885 14.0309,-9.21573 z m -127.9798,4.67229 c 4.637,-4.51903 7.8673,-11.28757 7.8673,-16.48486 0,-12.4534 8.2867,-22.65928 18.6116,-22.92186 7.7058,-0.19598 7.9443,-0.50774 2.2221,-2.90407 -8.614,-3.60738 -53.3153,-3.75129 -59.09,-0.19023 -3.6212,2.23308 -3.7839,3.79807 -0.7634,7.34487 2.1111,2.47894 3.5927,7.15436 3.2926,10.38982 -1.1896,12.82282 0.7524,20.21426 6.8803,26.18615 8.2987,8.08745 11.4422,7.87471 20.9795,-1.41982 z"
       id="path3155"
       inkscape:connector-curvature="0"
       sodipodi:nodetypes="sssssscsssscccssssssscsssssssssssssssssssscsssssscssccccccsscccccscssssssscssssssssssssssssssssssssssssscscsscssscscssscsscssssscssssssssssssscsscsccssssscsscssssccsscscscscscscscsssccsscscscsccscssccsssssssscscsssssssssssscsssscsssssscscscssccssssscscsscscccscccssssssscscsssssssccssscccscssssssscsssscsssssssscscscssscsscssssssscsssssccccccssscscscsssssscssscssscssssssssssscssssssssscsssssssssssssscsssssscssscssssssscsssssscssssscssccssssssssssssscssssscssssssssscss" />
  </g>
</svg>
